<?xml version="1.0" encoding="UTF-8"?><svg id="a" xmlns="http://www.w3.org/2000/svg" viewBox="0 0 24 24"><defs><style>.b{fill:#111;}.c{fill:none;}</style></defs><g><path class="c" d="M0,0H24V24H0V0Z"/><path class="b" d="M12,3c5.8,0,10.5,3.66,10.5,8.19s-4.7,8.18-10.5,8.18c-.58,0-1.15-.04-1.73-.11l-4.41,2.88c-.5,.26-.68,.24-.47-.41l.89-3.68c-2.88-1.46-4.78-3.99-4.78-6.87C1.5,6.66,6.2,3,12,3Zm5.91,8.06l1.47-1.42c.18-.19,.18-.49-.01-.67-.18-.17-.46-.18-.64-.01l-1.93,1.87v-1.54c0-.26-.21-.47-.47-.47s-.47,.21-.47,.47v2.56c-.02,.07-.02,.15,0,.22v1.44c0,.26,.21,.47,.47,.47s.47-.21,.47-.47v-1.36l.43-.41,1.43,2.03c.15,.21,.44,.26,.66,.12,.21-.15,.26-.44,.11-.66l-1.51-2.15h0Zm-2.96,1.93h-1.46v-3.69c-.01-.26-.23-.46-.49-.45-.24,.01-.44,.21-.45,.45v4.16c0,.26,.21,.47,.47,.47h1.93c.26,0,.47-.21,.47-.47s-.21-.47-.47-.47Zm-5.86-1.09l.7-1.71,.64,1.71h-1.33Zm2.52,.49v-.02c0-.12-.04-.23-.12-.32l-1.05-2.8c-.09-.27-.34-.46-.63-.47-.29,0-.55,.18-.65,.45l-1.66,4.07c-.1,.24,.02,.52,.26,.62,.24,.1,.52-.02,.62-.26l.33-.81h2.07l.3,.8c.08,.25,.35,.38,.6,.29,.25-.08,.38-.35,.29-.6v-.03l-.35-.93Zm-3.32-3.08c0-.26-.21-.47-.47-.47h-3.24c-.26,0-.47,.21-.47,.47s.21,.47,.47,.47h1.16v3.74c0,.26,.21,.47,.47,.47,.26,0,.47-.21,.47-.47v-3.74h1.14c.26,0,.47-.21,.47-.47Z"/></g><rect class="b" x="3.56" y="8.19" width="16.48" height="6.48"/></svg>