<?xml version="1.0" encoding="UTF-8"?><svg id="a" xmlns="http://www.w3.org/2000/svg" viewBox="0 0 64.74 64.44"><defs><style>.j{fill:#fff;}.k{fill:#ea4335;}.k,.l,.m,.n{fill-rule:evenodd;}.l{fill:#fbbc05;}.o{fill:none;}.m{fill:#4285f4;}.n{fill:#34a853;}</style></defs><path id="b" class="j" d="M39.74,14.44h0c13.81,0,25,11.19,25,25h0c0,13.81-11.19,25-25,25h0c-13.81,0-25-11.19-25-25h0c0-13.81,11.19-25,25-25Z"/><g id="c" transform="translate(13 10.771)"><g id="d" transform="translate(0 2.228)"><path id="e" class="m" d="M38.91,20.31c0-1.36-.12-2.72-.36-4.06H19.85v7.68h10.68c-.45,2.45-1.88,4.62-3.96,5.99v4.98h6.42c3.95-3.81,6.1-9.11,5.92-14.59h0Z"/><path id="f" class="n" d="M19.85,39.71c4.83,.13,9.53-1.59,13.14-4.81l-6.42-4.98c-5.57,3.57-12.98,1.96-16.55-3.61-.54-.84-.97-1.73-1.28-2.68H2.11v5.14c3.37,6.71,10.24,10.94,17.74,10.93Z"/><path id="g" class="l" d="M8.74,23.63c-.83-2.45-.83-5.1,0-7.54v-5.14H2.11c-2.82,5.61-2.82,12.22,0,17.83l6.63-5.14Z"/><path id="h" class="k" d="M19.85,7.9c2.82-.05,5.55,1.02,7.59,2.97l5.69-5.7C29.54,1.8,24.78-.06,19.85,0,12.35,0,5.48,4.23,2.11,10.94l6.63,5.14c1.56-4.83,6.03-8.12,11.11-8.18Z"/><path id="i" class="o" d="M0,0H39.71V39.71H0V0Z"/></g></g></svg>