<?xml version="1.0" encoding="UTF-8"?><svg id="a" xmlns="http://www.w3.org/2000/svg" viewBox="0 0 50 50"><defs><style>.c{fill:#111;}.d{fill:#fee500;}.e{fill:none;}</style></defs><path id="b" class="d" d="M25,0h0c13.81,0,25,11.19,25,25h0c0,13.81-11.19,25-25,25h0C11.19,50,0,38.81,0,25H0C0,11.19,11.19,0,25,0Z"/><g><path class="e" d="M4.97,3.87H45.03V43.93H4.97V3.87Z"/><path class="c" d="M25,8.88c9.68,0,17.52,6.11,17.52,13.66s-7.85,13.66-17.52,13.66c-.96,0-1.93-.06-2.88-.18l-7.36,4.81c-.84,.44-1.13,.39-.79-.69l1.49-6.14c-4.81-2.44-7.99-6.66-7.99-11.46,0-7.54,7.85-13.66,17.52-13.66Zm9.86,13.45l2.45-2.38c.3-.31,.29-.81-.02-1.11-.3-.29-.77-.29-1.07-.02l-3.22,3.11v-2.57c0-.44-.35-.79-.79-.79s-.79,.35-.79,.79v4.27c-.03,.12-.03,.25,0,.37v2.4c0,.44,.35,.79,.79,.79s.79-.35,.79-.79v-2.27l.71-.69,2.38,3.39c.25,.36,.74,.44,1.1,.19,.36-.25,.44-.74,.19-1.1l-2.53-3.6h0Zm-4.94,3.21h-2.44v-6.15c-.02-.43-.39-.77-.82-.75-.41,.02-.73,.34-.75,.75v6.94c0,.43,.35,.79,.79,.79h3.22c.44,0,.79-.35,.79-.79s-.35-.79-.79-.79Zm-9.77-1.82l1.16-2.85,1.06,2.85h-2.23Zm4.21,.81v-.03c0-.2-.07-.39-.21-.53l-1.75-4.67c-.15-.46-.57-.77-1.05-.79-.48,0-.92,.29-1.09,.75l-2.77,6.8c-.16,.4,.03,.86,.43,1.03,.4,.16,.86-.03,1.03-.43l.55-1.36h3.45l.5,1.34c.14,.41,.59,.63,1,.49,.41-.14,.63-.59,.49-1,0-.01-.01-.03-.02-.04l-.58-1.55Zm-5.54-5.14c0-.43-.35-.79-.79-.79h-5.42c-.44,0-.79,.35-.79,.79s.35,.79,.79,.79h1.94v6.23c0,.44,.35,.79,.79,.79,.43,0,.79-.35,.79-.79v-6.23h1.9c.44,0,.79-.35,.79-.79Z"/></g></svg>